<svg width="110" height="110" viewBox="0 0 110 110" fill="none" xmlns="http://www.w3.org/2000/svg">
<path d="M55.0346 25.8336L55.037 25.8321L55.0495 25.8242L55.1047 25.7901C55.1546 25.7595 55.2306 25.7133 55.3312 25.6534C55.5325 25.5336 55.8324 25.3592 56.2199 25.145C56.9952 24.7164 58.1193 24.1295 59.5043 23.5024C62.2805 22.2453 66.0748 20.8408 70.1929 20.2121C74.3123 19.5832 78.695 19.7395 82.7032 21.5335C86.689 23.3174 90.4097 26.7672 93.1488 32.9251C95.8396 38.9743 95.4181 45.5174 93.0356 52.0142C90.6498 58.5201 86.3176 64.9142 81.3047 70.564C76.296 76.209 70.6456 81.0684 65.6758 84.5097C63.1906 86.2306 60.8912 87.5861 58.9409 88.507C56.9567 89.444 55.446 89.8765 54.4998 89.8765C53.5535 89.8765 52.0429 89.444 50.0587 88.507C48.1085 87.5861 45.8091 86.2307 43.3239 84.5097C38.3542 81.0684 32.704 76.2091 27.6954 70.5641C22.6826 64.9143 18.3505 58.5202 15.9646 52.0142C13.582 45.5174 13.1604 38.9743 15.8508 32.9251C18.5896 26.7672 22.31 23.3174 26.2957 21.5335C30.3039 19.7395 34.6866 19.5832 38.8061 20.2121C42.9243 20.8407 46.7188 22.2453 49.4951 23.5024C50.8802 24.1295 52.0043 24.7164 52.7796 25.145C53.1671 25.3592 53.467 25.5336 53.6684 25.6534C53.769 25.7133 53.845 25.7595 53.8949 25.7901L53.9501 25.8242L53.9626 25.8321L53.965 25.8336L53.9651 25.8337L53.9654 25.8339L54.4998 26.172L55.0342 25.8338L55.0345 25.8337L55.0346 25.8336Z" stroke="#0029FF" stroke-width="2"/>
<path d="M51.273 55.5683C51.836 54.0059 52.2381 52.7439 52.4794 51.7824C52.7206 50.821 52.8413 50.0598 52.8413 49.4989C52.8413 48.938 52.7407 48.5775 52.5397 48.4172C52.3788 48.2169 52.1979 48.1168 51.9968 48.1168C51.5545 48.1168 51.072 48.3371 50.5492 48.7778C50.0265 49.1784 49.5037 49.6592 48.981 50.22C48.4582 50.7809 47.9958 51.3418 47.5937 51.9026C47.1915 52.4635 46.9101 52.9042 46.7492 53.2247L45 52.143C45.4825 51.2616 46.146 50.2801 46.9905 49.1984C47.8751 48.1168 48.8603 47.1152 49.946 46.1938C51.0317 45.2724 52.1577 44.5112 53.3238 43.9102C54.4899 43.2693 55.5958 42.9488 56.6413 42.9488C57.6466 42.9488 58.3905 43.2492 58.873 43.8502C59.3958 44.411 59.6571 45.4526 59.6571 46.975C59.6571 48.1368 59.2952 49.6992 58.5714 51.6623C57.8878 53.6253 56.9831 56.1492 55.8571 59.234L53.6254 65.3034C53.545 65.5037 53.4243 65.8242 53.2635 66.2649C53.1429 66.6655 53.0021 67.1062 52.8413 67.587C52.7206 68.0276 52.6 68.4683 52.4794 68.909C52.3989 69.3497 52.3587 69.7103 52.3587 69.9907C52.3587 70.3512 52.4593 70.6717 52.6603 70.9522C52.8614 71.2326 53.1831 71.3728 53.6254 71.3728C54.2286 71.3728 54.8519 71.1325 55.4952 70.6517C56.1386 70.1309 56.7619 69.53 57.3651 68.8489C57.9683 68.1679 58.5111 67.4868 58.9937 66.8057C59.4762 66.0846 59.8381 65.5238 60.0794 65.1231L61.8889 66.1447C61.4063 67.1062 60.7429 68.1679 59.8984 69.3297C59.0942 70.4915 58.1693 71.5731 57.1238 72.5747C56.0783 73.5362 54.9323 74.3574 53.6857 75.0385C52.4392 75.6795 51.1524 76 49.8254 76C48.6593 76 47.7746 75.6995 47.1714 75.0986C46.6085 74.4977 46.327 73.4961 46.327 72.0939C46.327 70.9321 46.5079 69.6902 46.8698 68.3682C47.272 67.0061 47.8349 65.3034 48.5587 63.2603L51.273 55.5683ZM60.1397 40.5717C59.1344 40.5717 58.2497 40.2312 57.4857 39.5502C56.7619 38.8691 56.4 37.9877 56.4 36.9061C56.4 35.8244 56.7619 34.9029 57.4857 34.1418C58.2095 33.3806 59.0942 33 60.1397 33C61.2656 33 62.1905 33.3806 62.9143 34.1418C63.6381 34.9029 64 35.8043 64 36.846C64 37.8876 63.618 38.7689 62.854 39.4901C62.0899 40.2112 61.1852 40.5717 60.1397 40.5717Z" fill="#0029FF"/>
</svg>
