<svg width="128" height="128" viewBox="0 0 128 128" fill="none" xmlns="http://www.w3.org/2000/svg">
<path d="M94 63.5C94 80.3447 80.3447 94 63.5 94C46.6553 94 33 80.3447 33 63.5C33 46.6553 46.6553 33 63.5 33C80.3447 33 94 46.6553 94 63.5Z" fill="black"/>
<path d="M62 14C62 12.8954 62.8954 12 64 12C65.1046 12 66 12.8954 66 14V22C66 23.1046 65.1046 24 64 24C62.8954 24 62 23.1046 62 22V14Z" fill="black"/>
<path d="M62 105C62 103.895 62.8954 103 64 103C65.1046 103 66 103.895 66 105V113C66 114.105 65.1046 115 64 115C62.8954 115 62 114.105 62 113V105Z" fill="black"/>
<path d="M113.5 61.5C114.605 61.5 115.5 62.3954 115.5 63.5C115.5 64.6046 114.605 65.5 113.5 65.5H105.5C104.395 65.5 103.5 64.6046 103.5 63.5C103.5 62.3954 104.395 61.5 105.5 61.5H113.5Z" fill="black"/>
<path d="M22.5 61.5C23.6046 61.5 24.5 62.3954 24.5 63.5C24.5 64.6046 23.6046 65.5 22.5 65.5H14.5C13.3954 65.5 12.5 64.6046 12.5 63.5C12.5 62.3954 13.3954 61.5 14.5 61.5H22.5Z" fill="black"/>
<path d="M22.1315 89.9819C21.1749 90.5342 19.9517 90.2065 19.3994 89.2499C18.8471 88.2933 19.1749 87.0701 20.1315 86.5178L27.0597 82.5178C28.0163 81.9655 29.2394 82.2933 29.7917 83.2499C30.344 84.2065 30.0163 85.4296 29.0597 85.9819L22.1315 89.9819Z" fill="black"/>
<path d="M100.94 44.4819C99.9835 45.0342 98.7603 44.7065 98.208 43.7499C97.6557 42.7933 97.9835 41.5701 98.9401 41.0178L105.868 37.0178C106.825 36.4655 108.048 36.7933 108.6 37.7499C109.153 38.7065 108.825 39.9297 107.868 40.4819L100.94 44.4819Z" fill="black"/>
<path d="M20.1315 40.4819C19.1749 39.9296 18.8471 38.7065 19.3994 37.7499C19.9517 36.7933 21.1749 36.4655 22.1315 37.0178L29.0597 41.0178C30.0163 41.5701 30.344 42.7933 29.7917 43.7499C29.2394 44.7065 28.0163 45.0342 27.0597 44.4819L20.1315 40.4819Z" fill="black"/>
<path d="M98.9401 85.9822C97.9835 85.4299 97.6557 84.2067 98.208 83.2501C98.7603 82.2935 99.9835 81.9658 100.94 82.5181L107.868 86.5181C108.825 87.0704 109.153 88.2935 108.6 89.2501C108.048 90.2067 106.825 90.5345 105.868 89.9822L98.9401 85.9822Z" fill="black"/>
<path d="M37.5176 21.6315C36.9653 20.6749 37.293 19.4517 38.2496 18.8994C39.2062 18.3471 40.4294 18.6749 40.9817 19.6315L44.9817 26.5597C45.534 27.5163 45.2062 28.7394 44.2496 29.2917C43.293 29.844 42.0699 29.5163 41.5176 28.5597L37.5176 21.6315Z" fill="black"/>
<path d="M83.0176 100.44C82.4653 99.4837 82.793 98.2605 83.7496 97.7083C84.7062 97.156 85.9294 97.4837 86.4817 98.4403L90.4817 105.369C91.034 106.325 90.7062 107.548 89.7496 108.101C88.793 108.653 87.5699 108.325 87.0176 107.369L83.0176 100.44Z" fill="black"/>
<path d="M87.0176 19.6315C87.5699 18.6749 88.793 18.3471 89.7496 18.8994C90.7062 19.4517 91.034 20.6749 90.4817 21.6315L86.4817 28.5597C85.9294 29.5163 84.7062 29.844 83.7496 29.2917C82.793 28.7394 82.4653 27.5163 83.0176 26.5597L87.0176 19.6315Z" fill="black"/>
<path d="M41.5166 98.4403C42.0689 97.4837 43.2921 97.156 44.2487 97.7083C45.2052 98.2605 45.533 99.4837 44.9807 100.44L40.9807 107.369C40.4284 108.325 39.2052 108.653 38.2487 108.101C37.2921 107.548 36.9643 106.325 37.5166 105.369L41.5166 98.4403Z" fill="black"/>
</svg>
