<svg width="110" height="110" viewBox="0 0 110 110" fill="none" xmlns="http://www.w3.org/2000/svg">
<path d="M17.5977 87.0818V64.8764C17.5977 59.3536 22.0748 54.8764 27.5977 54.8764H37.7903C43.3131 54.8764 47.7903 59.3536 47.7903 64.8764V75.0176C47.7903 76.1222 46.8948 77.0176 45.7903 77.0176H40.397C39.2924 77.0176 38.397 76.1222 38.397 75.0176V52.1284C38.397 46.6056 42.8742 42.1284 48.397 42.1284H60.6024C66.1253 42.1284 70.6024 46.6056 70.6024 52.1284V75.0176C70.6024 76.1222 69.707 77.0176 68.6024 77.0176H63.2092C62.1046 77.0176 61.2092 76.1222 61.2092 75.0176V64.8764C61.2092 59.3536 65.6863 54.8764 71.2092 54.8764H81.4018C86.9246 54.8764 91.4018 59.3536 91.4018 64.8764V86.4109" stroke="#0029FF" stroke-width="2.5"/>
<circle cx="77.983" cy="42.1284" r="6.80136" fill="#0029FF" stroke="#0029FF" stroke-width="2.5"/>
<circle cx="55.1705" cy="30.0514" r="6.80136" fill="#0029FF" stroke="#0029FF" stroke-width="2.5"/>
<circle cx="31.0172" cy="42.1284" r="6.80136" fill="#0029FF" stroke="#0029FF" stroke-width="2.5"/>
</svg>
