<svg width="110" height="110" viewBox="0 0 110 110" fill="none" xmlns="http://www.w3.org/2000/svg">
<path d="M80.1292 40.7097C80.1292 44.0921 78.7999 48.2734 76.6563 52.7137C74.5234 57.1319 71.6324 61.7095 68.6168 65.8556C65.6018 70.0009 62.4798 73.6908 59.8983 76.3348C58.6055 77.6589 57.4647 78.7036 56.5527 79.4095C56.0955 79.7634 55.7161 80.0162 55.4186 80.1759C55.1606 80.3145 55.0316 80.3458 55.0025 80.3528C55.0016 80.3531 55.0008 80.3533 55.0001 80.3534C54.9994 80.3533 54.9986 80.3531 54.9977 80.3528C54.9687 80.3458 54.8397 80.3145 54.5817 80.1759C54.2842 80.0162 53.9047 79.7634 53.4475 79.4095C52.5355 78.7036 51.3948 77.6589 50.102 76.3348C47.5205 73.6908 44.3985 70.0009 41.3834 65.8556C38.3679 61.7095 35.4769 57.1319 33.344 52.7137C31.2004 48.2734 29.8711 44.0921 29.8711 40.7097C29.8711 26.8313 41.1217 15.5807 55.0001 15.5807C68.8785 15.5807 80.1292 26.8313 80.1292 40.7097Z" stroke="#0029FF" stroke-width="2"/>
<line x1="44.8389" y1="70.1936" x2="65.1614" y2="70.1936" stroke="#0029FF" stroke-width="2"/>
<line x1="39.0322" y1="61.4839" x2="70.9677" y2="61.4839" stroke="#0029FF" stroke-width="2"/>
<path d="M51.4262 93.4194L49.023 83.8065H60.9775L58.5743 93.4194H51.4262Z" fill="#0029FF" stroke="#0029FF" stroke-width="2"/>
<line x1="61.2578" y1="82.8065" x2="61.2578" y2="74.0968" stroke="#0029FF" stroke-width="2"/>
<path d="M50.3076 61.0323C50.3076 61.0323 42.096 39.9022 43.562 29.0969C44.3577 23.2321 51.545 16.0323 51.545 16.0323" stroke="#0029FF" stroke-width="2"/>
<path d="M59.1406 61.0323C59.1406 61.0323 67.3523 39.9022 65.8862 29.0969C65.0905 23.2321 57.9033 16.0323 57.9033 16.0323" stroke="#0029FF" stroke-width="2"/>
<path d="M49.1934 82.8065L49.1934 74.0968" stroke="#0029FF" stroke-width="2"/>
<mask id="path-9-inside-1_1555_725" fill="white">
<path fill-rule="evenodd" clip-rule="evenodd" d="M86.4786 45.7348C84.3144 47.147 81.7291 47.9679 78.9521 47.9679C76.7334 47.9679 74.6371 47.4439 72.7801 46.5129C71.1793 47.4383 69.3211 47.9679 67.3392 47.9679C61.3265 47.9679 56.4521 43.0935 56.4521 37.0808C56.4521 31.068 61.3265 26.1937 67.3392 26.1937C67.4608 26.1937 67.5819 26.1957 67.7024 26.1996C70.2014 22.6821 74.3088 20.3872 78.9521 20.3872C85.8341 20.3872 91.5387 25.4283 92.5746 32.0193C96.7236 32.3057 100.001 35.7622 100.001 39.984C100.001 44.3934 96.426 47.9679 92.0167 47.9679C89.8661 47.9679 87.9141 47.1175 86.4786 45.7348Z"/>
</mask>
<path fill-rule="evenodd" clip-rule="evenodd" d="M86.4786 45.7348C84.3144 47.147 81.7291 47.9679 78.9521 47.9679C76.7334 47.9679 74.6371 47.4439 72.7801 46.5129C71.1793 47.4383 69.3211 47.9679 67.3392 47.9679C61.3265 47.9679 56.4521 43.0935 56.4521 37.0808C56.4521 31.068 61.3265 26.1937 67.3392 26.1937C67.4608 26.1937 67.5819 26.1957 67.7024 26.1996C70.2014 22.6821 74.3088 20.3872 78.9521 20.3872C85.8341 20.3872 91.5387 25.4283 92.5746 32.0193C96.7236 32.3057 100.001 35.7622 100.001 39.984C100.001 44.3934 96.426 47.9679 92.0167 47.9679C89.8661 47.9679 87.9141 47.1175 86.4786 45.7348Z" fill="white"/>
<path d="M86.4786 45.7348L87.8661 44.2943L86.7192 43.1896L85.3856 44.0599L86.4786 45.7348ZM72.7801 46.5129L73.6764 44.725L72.7126 44.2418L71.7791 44.7814L72.7801 46.5129ZM67.7024 26.1996L67.6369 28.1985L68.7106 28.2337L69.3328 27.3579L67.7024 26.1996ZM92.5746 32.0193L90.5988 32.3298L90.8464 33.9048L92.4368 34.0146L92.5746 32.0193ZM78.9521 49.9679C82.1289 49.9679 85.0922 49.0276 87.5716 47.4097L85.3856 44.0599C83.5366 45.2664 81.3293 45.9679 78.9521 45.9679V49.9679ZM71.8838 48.3008C74.0126 49.3681 76.4152 49.9679 78.9521 49.9679V45.9679C77.0516 45.9679 75.2615 45.5197 73.6764 44.725L71.8838 48.3008ZM67.3392 49.9679C69.6819 49.9679 71.8842 49.3409 73.781 48.2444L71.7791 44.7814C70.4745 45.5356 68.9604 45.9679 67.3392 45.9679V49.9679ZM54.4521 37.0808C54.4521 44.1981 60.2219 49.9679 67.3392 49.9679V45.9679C62.431 45.9679 58.4521 41.989 58.4521 37.0808H54.4521ZM67.3392 24.1937C60.2219 24.1937 54.4521 29.9634 54.4521 37.0808H58.4521C58.4521 32.1725 62.431 28.1937 67.3392 28.1937V24.1937ZM67.7679 24.2007C67.6256 24.196 67.4827 24.1937 67.3392 24.1937V28.1937C67.4389 28.1937 67.5381 28.1953 67.6369 28.1985L67.7679 24.2007ZM78.9521 18.3872C73.6338 18.3872 68.93 21.0185 66.072 25.0413L69.3328 27.3579C71.4728 24.3458 74.9838 22.3872 78.9521 22.3872V18.3872ZM94.5503 31.7088C93.3639 24.1602 86.8341 18.3872 78.9521 18.3872V22.3872C84.8341 22.3872 89.7134 26.6964 90.5988 32.3298L94.5503 31.7088ZM92.4368 34.0146C95.5446 34.2291 98.0005 36.8206 98.0005 39.984H102.001C102.001 34.7037 97.9027 30.3823 92.7123 30.0241L92.4368 34.0146ZM98.0005 39.984C98.0005 43.2888 95.3215 45.9679 92.0167 45.9679V49.9679C97.5306 49.9679 102.001 45.4979 102.001 39.984H98.0005ZM92.0167 45.9679C90.404 45.9679 88.9439 45.3326 87.8661 44.2943L85.0911 47.1752C86.8843 48.9025 89.3281 49.9679 92.0167 49.9679V45.9679Z" fill="#0029FF" mask="url(#path-9-inside-1_1555_725)"/>
<mask id="path-11-inside-2_1555_725" fill="white">
<path fill-rule="evenodd" clip-rule="evenodd" d="M30.0179 76.4789C28.5751 77.4205 26.8514 77.9678 25 77.9678C23.5209 77.9678 22.1233 77.6185 20.8853 76.9979C19.8182 77.6148 18.5793 77.9678 17.2581 77.9678C13.2495 77.9678 10 74.7183 10 70.7098C10 66.7013 13.2495 63.4517 17.2581 63.4517C17.3391 63.4517 17.4198 63.453 17.5002 63.4557C19.1662 61.1107 21.9044 59.5807 25 59.5807C29.588 59.5807 33.391 62.9414 34.0816 67.3354C36.8479 67.5261 39.0327 69.8305 39.0327 72.6452C39.0327 75.5848 36.6497 77.9678 33.7101 77.9678C32.2763 77.9678 30.9749 77.4008 30.0179 76.4789Z"/>
</mask>
<path fill-rule="evenodd" clip-rule="evenodd" d="M30.0179 76.4789C28.5751 77.4205 26.8514 77.9678 25 77.9678C23.5209 77.9678 22.1233 77.6185 20.8853 76.9979C19.8182 77.6148 18.5793 77.9678 17.2581 77.9678C13.2495 77.9678 10 74.7183 10 70.7098C10 66.7013 13.2495 63.4517 17.2581 63.4517C17.3391 63.4517 17.4198 63.453 17.5002 63.4557C19.1662 61.1107 21.9044 59.5807 25 59.5807C29.588 59.5807 33.391 62.9414 34.0816 67.3354C36.8479 67.5261 39.0327 69.8305 39.0327 72.6452C39.0327 75.5848 36.6497 77.9678 33.7101 77.9678C32.2763 77.9678 30.9749 77.4008 30.0179 76.4789Z" fill="white"/>
<path d="M30.0179 76.4789L31.4055 75.0385L30.2585 73.9336L28.9249 74.804L30.0179 76.4789ZM20.8853 76.9979L21.7816 75.21L20.8178 74.7268L19.8844 75.2664L20.8853 76.9979ZM17.5002 63.4557L17.4347 65.4546L18.5084 65.4898L19.1306 64.614L17.5002 63.4557ZM34.0816 67.3354L32.1059 67.6459L32.3534 69.221L33.9441 69.3306L34.0816 67.3354ZM25 79.9678C27.2513 79.9678 29.3529 79.3011 31.111 78.1538L28.9249 74.804C27.7972 75.5399 26.4516 75.9678 25 75.9678V79.9678ZM19.989 78.7858C21.4989 79.5427 23.2027 79.9678 25 79.9678V75.9678C23.839 75.9678 22.7477 75.6943 21.7816 75.21L19.989 78.7858ZM17.2581 79.9678C18.9401 79.9678 20.523 79.5174 21.8863 78.7294L19.8844 75.2664C19.1133 75.7121 18.2186 75.9678 17.2581 75.9678V79.9678ZM8 70.7098C8 75.8229 12.145 79.9678 17.2581 79.9678V75.9678C14.3541 75.9678 12 73.6137 12 70.7098H8ZM17.2581 61.4517C12.145 61.4517 8 65.5967 8 70.7098H12C12 67.8058 14.3541 65.4517 17.2581 65.4517V61.4517ZM17.5657 61.4567C17.4635 61.4534 17.3609 61.4517 17.2581 61.4517V65.4517C17.3172 65.4517 17.3761 65.4527 17.4347 65.4546L17.5657 61.4567ZM25 57.5807C21.2294 57.5807 17.8948 59.447 15.8697 62.2973L19.1306 64.614C20.4376 62.7743 22.5794 61.5807 25 61.5807V57.5807ZM36.0573 67.0248C35.2162 61.6733 30.5879 57.5807 25 57.5807V61.5807C28.588 61.5807 31.5657 64.2095 32.1059 67.6459L36.0573 67.0248ZM33.9441 69.3306C35.6689 69.4495 37.0327 70.889 37.0327 72.6452H41.0327C41.0327 68.772 38.0268 65.6026 34.2192 65.3401L33.9441 69.3306ZM37.0327 72.6452C37.0327 74.4802 35.5452 75.9678 33.7101 75.9678V79.9678C37.7543 79.9678 41.0327 76.6893 41.0327 72.6452H37.0327ZM33.7101 75.9678C32.8143 75.9678 32.0048 75.6159 31.4055 75.0385L28.6304 77.9193C29.9451 79.1858 31.7384 79.9678 33.7101 79.9678V75.9678Z" fill="#0029FF" mask="url(#path-11-inside-2_1555_725)"/>
</svg>
