<svg width="110" height="110" viewBox="0 0 110 110" fill="none" xmlns="http://www.w3.org/2000/svg">
<path d="M53.2692 54.0717L96 17L79.4422 64.426L53.5269 55.412C52.9543 55.2128 52.8113 54.469 53.2692 54.0717Z" stroke="#0029FF" stroke-width="1.97115"/>
<path d="M45.5381 75.8586L61.3073 58.5125L53.0285 55.3586L45.5381 75.8586Z" fill="#0029FF" stroke="#0029FF" stroke-width="1.97115"/>
<path d="M23.8555 48.2626L23.4508 47.3639C23.0633 47.5384 22.8313 47.9417 22.8752 48.3644C22.9191 48.7872 23.229 49.1341 23.6442 49.2253L23.8555 48.2626ZM95.5 16L96.32 16.5467L98.2224 13.6932L95.0953 15.1013L95.5 16ZM54.4084 43.3347L53.9081 42.4855L53.9081 42.4855L54.4084 43.3347ZM39.7165 51.7443L39.5052 52.7069L39.7165 51.7443ZM40.2857 51.6535L39.7855 50.8043L40.2857 51.6535ZM23.6442 49.2253L39.5052 52.7069L39.9278 50.7816L24.0668 47.2999L23.6442 49.2253ZM95.0953 15.1013L23.4508 47.3639L24.2602 49.1613L95.9047 16.8987L95.0953 15.1013ZM40.7859 52.5027L54.9086 44.1839L53.9081 42.4855L39.7855 50.8043L40.7859 52.5027ZM54.9086 44.1839L62.1033 39.9459L61.1028 38.2475L53.9081 42.4855L54.9086 44.1839ZM65.7006 37.8269L69.298 35.708L68.2976 34.0095L64.7002 36.1285L65.7006 37.8269ZM95.32 18.0467L96.32 16.5467L94.68 15.4533L93.68 16.9533L95.32 18.0467ZM39.5052 52.7069C39.9426 52.803 40.4001 52.73 40.7859 52.5027L39.7855 50.8043C39.8284 50.7791 39.8792 50.771 39.9278 50.7816L39.5052 52.7069Z" fill="#0029FF"/>
<path d="M45.5381 75.0702L40.4131 52.2048" stroke="#0029FF" stroke-width="1.97115"/>
<line x1="19.1551" y1="78.9276" x2="32.5384" y2="69.1787" stroke="#0029FF" stroke-width="1.97115"/>
<line x1="13.4197" y1="83.1057" x2="17.2435" y2="80.3203" stroke="#0029FF" stroke-width="1.97115"/>
<line x1="23.0965" y1="89.1476" x2="36.4799" y2="79.3986" stroke="#0029FF" stroke-width="1.97115"/>
<line x1="17.3621" y1="93.3257" x2="21.1859" y2="90.5403" stroke="#0029FF" stroke-width="1.97115"/>
<line x1="41.2322" y1="86.7821" x2="54.6156" y2="77.0332" stroke="#0029FF" stroke-width="1.97115"/>
<line x1="35.4969" y1="90.9602" x2="39.3207" y2="88.1748" stroke="#0029FF" stroke-width="1.97115"/>
</svg>
