<svg width="110" height="110" viewBox="0 0 110 110" fill="none" xmlns="http://www.w3.org/2000/svg">
<rect x="63.8213" y="21.1072" width="28.9286" height="28.9286" rx="1.32143" stroke="#0029FF" stroke-width="2.5"/>
<circle cx="31.8571" cy="76.2857" r="16.6071" stroke="#0029FF" stroke-width="2.5"/>
<circle cx="31.8567" cy="76.2858" r="10.8929" stroke="#0029FF" stroke-width="2.5"/>
<path d="M55.5982 30.7411C56.0863 30.253 56.0863 29.4615 55.5982 28.9733L47.6432 21.0184C47.1551 20.5302 46.3636 20.5302 45.8755 21.0184C45.3873 21.5065 45.3873 22.298 45.8755 22.7861L52.9465 29.8572L45.8754 36.9283C45.3873 37.4164 45.3873 38.2079 45.8754 38.696C46.3636 39.1842 47.155 39.1842 47.6432 38.696L55.5982 30.7411ZM37.8572 29.8572L37.8572 28.6072L37.8572 29.8572ZM35.25 52L35.25 33.7143L32.75 33.7143L32.75 52L35.25 52ZM37.8572 31.1072L54.7143 31.1072L54.7143 28.6072L37.8572 28.6072L37.8572 31.1072ZM35.25 33.7143C35.25 32.2744 36.4173 31.1072 37.8572 31.1072L37.8572 28.6072C35.0366 28.6072 32.75 30.8937 32.75 33.7143L35.25 33.7143Z" fill="#0029FF"/>
<path d="M55.9731 79.6876C55.485 80.1758 55.485 80.9672 55.9731 81.4554L63.9281 89.4103C64.4162 89.8985 65.2077 89.8985 65.6958 89.4103C66.184 88.9222 66.184 88.1307 65.6958 87.6426L58.6248 80.5715L65.6959 73.5004C66.184 73.0123 66.184 72.2208 65.6959 71.7327C65.2077 71.2445 64.4162 71.2445 63.9281 71.7327L55.9731 79.6876ZM73.7141 80.5715L73.7141 81.8215L73.7141 80.5715ZM76.3213 58.4287L76.3213 76.7144L78.8213 76.7144L78.8213 58.4287L76.3213 58.4287ZM73.7141 79.3215L56.857 79.3215L56.857 81.8215L73.7141 81.8215L73.7141 79.3215ZM76.3213 76.7144C76.3213 78.1543 75.154 79.3215 73.7141 79.3215L73.7141 81.8215C76.5347 81.8215 78.8213 79.535 78.8213 76.7144L76.3213 76.7144Z" fill="#0029FF"/>
<path d="M78.2853 28.4286L85.7084 41.2857H70.8622L78.2853 28.4286Z" fill="#0029FF"/>
</svg>
