<svg width="180" height="33" viewBox="0 0 180 33" fill="none" xmlns="http://www.w3.org/2000/svg">
<g clip-path="url(#clip0_231_292)">
<path fill-rule="evenodd" clip-rule="evenodd" d="M33.6794 25.9492H30.7537V10.9064H24.9224V8.24995H39.5099V10.9034H33.6824V25.9462L33.6794 25.9492ZM66.8474 23.6744C64.9387 23.6744 63.0802 22.3094 63.0802 19.5277C63.0802 16.6964 64.9897 15.3824 66.8737 15.3824C68.8087 15.3824 70.7429 16.7212 70.7429 19.5029C70.7429 22.2847 68.7832 23.6744 66.8474 23.6744ZM75.3907 23.4247C75.1214 23.5747 74.8207 23.6602 74.5117 23.6744C74.0272 23.6744 73.5704 23.3969 73.5704 22.5119V13.2074H70.7939V14.7749C69.9022 13.3589 68.1974 12.8774 66.7207 12.8774C63.5384 12.8774 60.2789 15.0772 60.2789 19.5779C60.2789 23.9024 63.3089 26.2275 66.4139 26.2275C68.1202 26.2275 70.0049 25.5195 71.0999 24.003C71.4554 25.5195 72.7799 26.2027 74.0272 26.2027C74.794 26.2131 75.5379 25.9414 76.1174 25.4392C75.7635 24.8131 75.5178 24.1326 75.3907 23.4247ZM82.8772 23.5499C83.022 24.3068 83.3086 25.0295 83.7217 25.68C82.9649 26.0351 82.1404 26.2226 81.3044 26.2297C79.2164 26.2297 77.3069 25.0139 77.3069 21.9809V8.25295H80.1329V21.8294C80.1329 23.2702 80.8462 23.7764 81.7612 23.7764C82.1167 23.7764 82.4969 23.7014 82.8772 23.5499ZM132.92 23.5987C130.629 23.5987 128.999 21.8804 128.999 19.5292C128.999 17.1779 130.629 15.4589 132.92 15.4589C135.237 15.4589 136.867 17.1779 136.867 19.5292C136.867 21.8804 135.237 23.5987 132.92 23.5987ZM132.92 12.8797C129.024 12.8797 126.224 15.7619 126.224 19.5539C126.224 23.3459 129.024 26.2282 132.92 26.2282C136.84 26.2282 139.641 23.3459 139.641 19.5532C139.641 15.7612 136.84 12.8797 132.92 12.8797ZM141.153 13.2082H143.928V15.0284C144.869 13.5104 146.448 12.8797 148.001 12.8797C150.369 12.8797 152.635 14.4472 152.635 17.6332V25.9499H149.809V18.6149C149.809 16.4677 148.663 15.5572 147.212 15.5572C145.455 15.5572 143.979 16.8967 143.979 19.3492V25.9499H141.153V13.2082ZM157.125 18.4927C157.354 16.4189 158.907 15.3817 160.561 15.3817C162.191 15.3817 163.667 16.3927 163.718 18.4927H157.125ZM166.544 19.2254C166.544 14.9272 163.821 12.8797 160.689 12.8797C157.354 12.8797 154.147 15.1537 154.147 19.5029C154.147 23.8769 157.48 26.2282 160.816 26.2282C162.954 26.2282 164.914 25.3439 166.341 23.5469L164.533 21.8032C163.642 23.0422 162.319 23.5987 160.918 23.5987C159.262 23.5987 157.634 22.8157 157.201 20.8177H166.443C166.521 20.2907 166.555 19.7581 166.544 19.2254ZM121.454 8.25295L115.65 18.2639L109.87 8.25295H106.611V21.8819C106.593 23.2447 105.899 23.7494 104.998 23.7734V26.211C105.699 26.2726 106.404 26.1836 107.067 25.9499C108.479 25.4414 109.54 24.2002 109.54 21.9809V13.6897L114.325 21.9809H116.998L121.785 13.6897V25.9499H124.712V8.25295H121.454ZM89.9624 23.6692C89.7074 23.7382 89.4554 23.7764 89.2162 23.7764C88.3012 23.7764 87.5879 23.2702 87.5879 21.8294V8.25295H84.7619V21.9809C84.7619 25.0139 86.6714 26.2297 88.7594 26.2297C89.5843 26.223 90.3982 26.0402 91.1467 25.6934C90.6458 25.0867 90.2459 24.4032 89.9624 23.6692ZM58.9874 23.3617C58.4707 23.6047 57.9367 23.7764 57.4229 23.7764C56.4314 23.7764 55.6154 23.2439 55.6154 21.8294V15.7859H59.2064V13.2082H55.6162V9.94645H52.8149V13.2082H50.0399V15.7859H52.8149V21.9809C52.8149 24.9134 54.8504 26.2282 57.0412 26.2282C58.0837 26.2282 59.2372 25.9087 60.1799 25.3522L60.1762 25.3447C59.6874 24.7433 59.2869 24.0754 58.9867 23.3609L58.9874 23.3617ZM173.361 32.8612C176.569 32.8612 179.752 30.7365 179.752 26.5912H179.751V13.2074H176.926V19.7362C176.926 22.2134 175.348 23.5282 173.59 23.5282C172.012 23.5282 170.866 22.4669 170.866 20.5199V13.2074H168.04V20.9497C168.04 24.5894 170.713 26.2342 173.132 26.2342C174.965 26.2342 176.238 25.2239 176.977 23.9587V26.5904C176.977 29.0429 175.321 30.2805 173.488 30.2805C171.733 30.2805 170.103 29.1435 169.694 27.1717L167.022 28.0822C167.785 31.344 170.637 32.8597 173.361 32.8597V32.8612ZM36.0344 19.5554C36.0344 15.7604 38.8357 12.8782 42.7304 12.8782C46.6529 12.8782 49.4512 15.7604 49.4512 19.5554C49.4512 23.3474 46.6514 26.2297 42.7312 26.2297C38.8357 26.2297 36.0344 23.3482 36.0344 19.5554ZM38.8109 19.5277C38.8109 21.8789 40.4384 23.5979 42.7304 23.5979C45.0472 23.5979 46.6769 21.8789 46.6769 19.5277C46.6769 17.1764 45.0472 15.4574 42.7304 15.4574C40.4392 15.4574 38.8109 17.1764 38.8109 19.5277ZM103.042 26.5912C103.042 30.7365 99.8594 32.8612 96.6517 32.8612C93.9284 32.8612 91.0769 31.3432 90.3127 28.0815L92.9849 27.1725C93.3937 29.145 95.0234 30.2805 96.7792 30.2805C98.6122 30.2805 100.268 29.0429 100.268 26.5904V23.9579C99.5287 25.2232 98.2552 26.2335 96.4229 26.2335C94.0042 26.2335 91.3304 24.5909 91.3304 20.9497V13.2074H94.1564V20.5169C94.1564 22.4639 95.3032 23.5267 96.8812 23.5267C98.6369 23.5267 100.217 22.2119 100.217 19.7347V13.2059H103.042V26.5904V26.5912ZM15.2309 11.3407C15.0338 11.4311 14.8545 11.5561 14.7014 11.7097C14.0332 12.4409 13.5869 13.4557 13.3087 14.1569C12.8954 15.1938 12.56 16.26 12.3052 17.3467C12.1835 17.8671 12.0817 18.392 11.9999 18.9202L12.1132 18.8054C12.4173 18.4867 12.702 18.1501 12.9659 17.7974C13.6276 16.9075 14.1557 15.9256 14.5334 14.8829C15.0389 13.5007 15.2677 12.3652 15.2339 11.4082L15.2302 11.3407H15.2309ZM16.1572 32.9872C14.5409 32.9872 12.9172 32.4022 11.7262 31.317C10.3087 30.0247 9.43494 28.0867 9.05844 25.3919C8.94409 24.5727 8.8715 23.7481 8.84094 22.9214C8.58108 22.8939 8.32239 22.8564 8.06544 22.8089C2.88969 21.8587 -0.678814 16.3214 0.110936 10.4684C0.661436 6.3667 3.43269 2.5162 7.51869 0.179199L8.98644 2.7067C5.68269 4.5967 3.45294 7.6432 3.01944 10.8569C2.43669 15.1934 4.93944 19.2689 8.59869 19.9394C8.70819 19.9604 8.81169 19.9784 8.91369 19.9919C9.01119 18.8827 9.18519 17.7794 9.44019 16.6897C9.72837 15.4624 10.1077 14.2583 10.5749 13.0874C10.9364 12.1724 11.5349 10.8322 12.5272 9.74845C13.2704 8.9377 14.6624 8.16295 15.9599 8.38195C16.8404 8.52895 17.5274 9.0832 17.8949 9.9397C18.1169 10.4557 18.1582 10.9657 18.1694 11.3047C18.2182 12.6427 17.9324 14.1397 17.2972 15.8812C16.8212 17.1898 16.1569 18.422 15.3254 19.5389C14.9902 19.9852 14.6264 20.4164 14.2417 20.8177C13.4384 21.6562 12.6367 22.2374 11.7697 22.5817C11.7892 23.3834 11.8559 24.189 11.9677 24.9922C12.2474 26.9872 12.8182 28.3522 13.7122 29.1674C14.6429 30.0149 16.1219 30.306 17.3084 29.8747C18.4949 29.4442 19.4362 28.2727 19.5974 27.0284L22.5119 27.3997C22.2127 29.7165 20.5274 31.8135 18.3194 32.6152C17.6257 32.8642 16.8944 32.9902 16.1564 32.9887L16.1579 32.9872H16.1572Z" fill="#08051C"/>
</g>
<defs>
<clipPath id="clip0_231_292">
<rect width="180" height="33" fill="white"/>
</clipPath>
</defs>
</svg>
