<svg width="180" height="55" viewBox="0 0 180 55" fill="none" xmlns="http://www.w3.org/2000/svg">
<g clip-path="url(#clip0_227_212)">
<path d="M112.942 13.4707C116.844 13.4707 120.372 15.05 122.912 17.5971L118.714 21.7507C117.887 22.5705 116.623 22.7432 115.581 22.2149C114.749 21.7937 113.802 21.5655 112.798 21.5893C109.701 21.6638 107.182 24.1825 107.138 27.2477C107.092 30.4581 109.709 33.0748 112.942 33.0748C113.897 33.0748 114.797 32.8464 115.592 32.4416C116.642 31.907 117.927 32.1317 118.762 32.959L122.912 37.0651C120.372 39.612 116.844 41.1915 112.942 41.1915C105.258 41.1915 99.0196 35.0696 98.9364 27.4859C98.8516 19.8387 105.213 13.4707 112.942 13.4707Z" fill="#144466"/>
<path d="M94.3973 12.9102V38.0512C94.3973 39.5375 93.1795 40.7421 91.6775 40.7421H86.145V12.9102H94.3973Z" fill="#144466"/>
<path d="M90.2709 0.802734C92.5494 0.802734 94.3958 2.62973 94.3958 4.88437C94.3958 7.13882 92.5494 8.96581 90.2709 8.96581C87.9929 8.96581 86.146 7.13882 86.146 4.88437C86.146 2.62973 87.9929 0.802734 90.2709 0.802734Z" fill="#144466"/>
<path d="M135.344 0.20166V38.0441C135.344 39.5304 134.126 40.7351 132.624 40.7351H127.091V2.89283C127.091 1.40655 128.309 0.20166 129.811 0.20166C131.313 0.20166 135.344 0.20166 135.344 0.20166Z" fill="#144466"/>
<path d="M153.916 13.4707C161.651 13.4707 167.923 19.6763 167.923 27.3312C167.923 34.9861 161.651 41.1915 153.916 41.1915C146.18 41.1915 139.909 34.9861 139.909 27.3312C139.909 19.6763 146.18 13.4707 153.916 13.4707ZM153.916 21.1837C150.485 21.1837 147.704 23.936 147.704 27.3312C147.704 30.7261 150.485 33.4788 153.916 33.4788C157.347 33.4788 160.128 30.7261 160.128 27.3312C160.128 23.936 157.347 21.1837 153.916 21.1837Z" fill="#144466"/>
<path d="M53.6807 27.3233C53.6807 18.1793 62.5952 11.115 72.3116 14.209C76.9685 15.692 80.5312 19.555 81.5187 24.2966C83.3888 33.2761 76.7298 41.1915 67.993 41.1915C65.7555 41.1915 63.7022 40.6696 62.0944 39.7461V51.4339C62.0944 53.1068 60.7115 54.4753 59.0209 54.4753H53.7294C53.7294 54.4753 53.6835 29.1848 53.6807 27.4183V27.3233ZM73.5339 29.4051C75.1861 24.426 70.5974 19.8874 65.567 21.5234C63.79 22.1013 62.3794 23.4976 61.7953 25.256C60.1415 30.2349 64.7306 34.7761 69.7626 33.1383C71.5394 32.5602 72.9502 31.1633 73.5339 29.4051Z" fill="#144466"/>
<path d="M173.47 0.336914C177.036 0.336914 179.926 3.19733 179.926 6.72585C179.926 10.2542 177.036 13.1146 173.47 13.1146C169.904 13.1146 167.014 10.2542 167.014 6.72585C167.014 3.19733 169.904 0.336914 173.47 0.336914ZM173.481 1.86456C170.816 1.86456 168.656 4.0018 168.656 6.63831C168.656 9.27481 170.816 11.4123 173.481 11.4123C176.145 11.4123 178.305 9.27481 178.305 6.63831C178.305 4.0018 176.145 1.86456 173.481 1.86456Z" fill="#144466"/>
<path d="M173.841 3.43848C174.449 3.43848 174.913 3.48971 175.233 3.59239C175.554 3.69507 175.813 3.88509 176.01 4.16306C176.206 4.44103 176.305 4.77952 176.305 5.17833C176.305 5.5259 176.229 5.82586 176.079 6.07821C175.929 6.33016 175.722 6.53511 175.459 6.69165C175.291 6.7913 175.061 6.874 174.769 6.93936C175.004 7.01622 175.174 7.09328 175.281 7.17013C175.353 7.22137 175.458 7.33131 175.596 7.49934C175.733 7.66738 175.825 7.79688 175.871 7.88826L176.821 9.70517H174.6L173.551 7.79002C173.418 7.54231 173.3 7.38154 173.195 7.3073C173.054 7.21048 172.893 7.16186 172.714 7.16186H172.54V9.70537H170.567V3.43848H173.841ZM173.403 4.70368H172.54V5.97775H173.368C173.458 5.97775 173.631 5.94911 173.889 5.89202C174.019 5.8664 174.125 5.80084 174.208 5.69554C174.29 5.59024 174.331 5.46901 174.331 5.33224C174.331 5.12971 174.266 4.97439 174.136 4.86606C174.006 4.75794 173.762 4.70368 173.403 4.70368Z" fill="#144466"/>
<path fill-rule="evenodd" clip-rule="evenodd" d="M20.7993 0C9.32938 0 0 9.23205 0 20.5831L0.0132505 49.2892C0.0148634 52.1435 2.30433 54.3873 5.1882 54.3873C7.04326 54.3873 8.71017 53.4164 9.63402 51.8194L16.1047 40.6375C17.6373 40.9881 19.2083 41.1646 20.7993 41.1646C32.2693 41.1646 41.5988 31.9324 41.5988 20.5823C41.5988 9.23201 32.2693 0 20.7993 0ZM20.7993 35.1075C19.0472 35.1075 17.3372 34.8059 15.7133 34.2123L13.2834 33.3233L6.13274 45.6799L6.1208 20.5817C6.1211 12.5737 12.707 6.05737 20.7993 6.05737C28.8919 6.05737 35.4779 12.5741 35.4779 20.5823C35.4779 28.5903 28.8919 35.1075 20.7993 35.1075Z" fill="#144466"/>
</g>
<defs>
<clipPath id="clip0_227_212">
<rect width="180" height="54.6667" fill="white"/>
</clipPath>
</defs>
</svg>
